<svg width="264.20498046875px" height="56.01875px" xmlns="http://www.w3.org/2000/svg" viewBox="117.89750976562499 46.990625 264.20498046875 56.01875" style="background: none;" preserveAspectRatio="xMidYMid"><defs><filter id="editing-hover" x="-100%" y="-100%" width="300%" height="300%"><feFlood flood-color="#ffffff" result="flood"></feFlood><feComposite operator="in" in2="SourceAlpha" in="flood" result="shadow"></feComposite><feOffset dx="0" dy="0.1" in="SourceGraphic" result="offset-1"></feOffset><feOffset dx="0" dy="-0.1" in="shadow" result="offset-2"></feOffset><feMerge><feMergeNode in="offset-2"></feMergeNode><feMergeNode in="offset-1"></feMergeNode></feMerge></filter></defs><g filter="url(#editing-hover)"><g transform="translate(159.85000276565552, 82.41093730926514)"><path d="M8.28 0.24L8.28 0.24Q6.26 0.24 4.85-0.66L4.85-0.66L4.85-0.66Q3.44-1.56 2.73-3.18L2.73-3.18L2.73-3.18Q2.02-4.80 2.02-6.96L2.02-6.96L2.02-6.96Q2.02-9.12 2.73-10.74L2.73-10.74L2.73-10.74Q3.44-12.36 4.85-13.26L4.85-13.26L4.85-13.26Q6.26-14.16 8.28-14.16L8.28-14.16L8.28-14.16Q9.38-14.16 10.40-13.89L10.40-13.89L10.40-13.89Q11.42-13.62 12.26-13.10L12.26-13.10L12.26-11.10L12.18-11.10L12.18-11.10Q11.52-11.74 10.52-12.13L10.52-12.13L10.52-12.13Q9.52-12.52 8.34-12.52L8.34-12.52L8.34-12.52Q6.06-12.52 4.99-11.04L4.99-11.04L4.99-11.04Q3.92-9.56 3.92-6.96L3.92-6.96L3.92-6.96Q3.92-4.34 4.99-2.86L4.99-2.86L4.99-2.86Q6.06-1.38 8.32-1.38L8.32-1.38L8.32-1.38Q9.46-1.38 10.47-1.76L10.47-1.76L10.47-1.76Q11.48-2.14 12.18-2.82L12.18-2.82L12.26-2.82L12.26-0.82L12.26-0.82Q11.42-0.30 10.40-0.03L10.40-0.03L10.40-0.03Q9.38 0.24 8.28 0.24L8.28 0.24ZM26.14-13.92L27.90-13.92L27.90 0L26.14 0L26.14-6.44L18.66-6.44L18.66 0L16.90 0L16.90-13.92L18.66-13.92L18.66-8.08L26.14-8.08L26.14-13.92ZM38.80 0.24L38.80 0.24Q36.78 0.24 35.35-0.66L35.35-0.66L35.35-0.66Q33.92-1.56 33.17-3.18L33.17-3.18L33.17-3.18Q32.42-4.80 32.42-6.96L32.42-6.96L32.42-6.96Q32.42-9.12 33.17-10.74L33.17-10.74L33.17-10.74Q33.92-12.36 35.35-13.26L35.35-13.26L35.35-13.26Q36.78-14.16 38.80-14.16L38.80-14.16L38.80-14.16Q40.82-14.16 42.25-13.26L42.25-13.26L42.25-13.26Q43.68-12.36 44.43-10.74L44.43-10.74L44.43-10.74Q45.18-9.12 45.18-6.96L45.18-6.96L45.18-6.96Q45.18-4.80 44.43-3.18L44.43-3.18L44.43-3.18Q43.68-1.56 42.25-0.66L42.25-0.66L42.25-0.66Q40.82 0.24 38.80 0.24L38.80 0.24ZM38.80-1.36L38.80-1.36Q41.04-1.36 42.16-2.87L42.16-2.87L42.16-2.87Q43.28-4.38 43.28-6.96L43.28-6.96L43.28-6.96Q43.28-9.54 42.16-11.05L42.16-11.05L42.16-11.05Q41.04-12.56 38.80-12.56L38.80-12.56L38.80-12.56Q36.56-12.56 35.44-11.05L35.44-11.05L35.44-11.05Q34.32-9.54 34.32-6.96L34.32-6.96L34.32-6.96Q34.32-4.38 35.44-2.87L35.44-2.87L35.44-2.87Q36.56-1.36 38.80-1.36L38.80-1.36ZM49.70 0L49.70-13.92L54.22-13.92L54.22-13.92Q59.42-13.92 59.42-9.36L59.42-9.36L59.42-9.36Q59.42-7.06 58.13-5.85L58.13-5.85L58.13-5.85Q56.84-4.64 54.36-4.64L54.36-4.64L51.46-4.64L51.46 0L49.70 0ZM51.46-6.28L54.30-6.28L54.30-6.28Q56.02-6.28 56.77-6.98L56.77-6.98L56.77-6.98Q57.52-7.68 57.52-9.28L57.52-9.28L57.52-9.28Q57.52-10.88 56.77-11.56L56.77-11.56L56.77-11.56Q56.02-12.24 54.22-12.24L54.22-12.24L51.46-12.24L51.46-6.28ZM68.80 0.24L68.80 0.24Q66.78 0.24 65.35-0.66L65.35-0.66L65.35-0.66Q63.92-1.56 63.17-3.18L63.17-3.18L63.17-3.18Q62.42-4.80 62.42-6.96L62.42-6.96L62.42-6.96Q62.42-9.12 63.17-10.74L63.17-10.74L63.17-10.74Q63.92-12.36 65.35-13.26L65.35-13.26L65.35-13.26Q66.78-14.16 68.80-14.16L68.80-14.16L68.80-14.16Q70.82-14.16 72.25-13.26L72.25-13.26L72.25-13.26Q73.68-12.36 74.43-10.74L74.43-10.74L74.43-10.74Q75.18-9.12 75.18-6.96L75.18-6.96L75.18-6.96Q75.18-4.80 74.43-3.18L74.43-3.18L74.43-3.18Q73.68-1.56 72.25-0.66L72.25-0.66L72.25-0.66Q70.82 0.24 68.80 0.24L68.80 0.24ZM68.80-1.36L68.80-1.36Q71.04-1.36 72.16-2.87L72.16-2.87L72.16-2.87Q73.28-4.38 73.28-6.96L73.28-6.96L73.28-6.96Q73.28-9.54 72.16-11.05L72.16-11.05L72.16-11.05Q71.04-12.56 68.80-12.56L68.80-12.56L68.80-12.56Q66.56-12.56 65.44-11.05L65.44-11.05L65.44-11.05Q64.32-9.54 64.32-6.96L64.32-6.96L64.32-6.96Q64.32-4.38 65.44-2.87L65.44-2.87L65.44-2.87Q66.56-1.36 68.80-1.36L68.80-1.36ZM88.94-13.92L90.70-13.92L90.70 0L88.94 0L81.46-10.74L81.46 0L79.70 0L79.70-13.92L81.46-13.92L88.94-3.18L88.94-13.92ZM103.46-7.24L103.46-7.24Q105.46-6.38 105.46-3.90L105.46-3.90L105.46-3.90Q105.46-1.88 104.18-0.94L104.18-0.94L104.18-0.94Q102.90 0 100.58 0L100.58 0L95.70 0L95.70-13.92L100.72-13.92L100.72-13.92Q102.76-13.92 103.88-13.02L103.88-13.02L103.88-13.02Q105-12.12 105-10.28L105-10.28L105-10.28Q105-8.18 103.46-7.24L103.46-7.24ZM100.50-12.24L97.46-12.24L97.46-7.94L100.50-7.94L100.50-7.94Q101.88-7.94 102.49-8.44L102.49-8.44L102.49-8.44Q103.10-8.94 103.10-10.20L103.10-10.20L103.10-10.20Q103.10-11.36 102.49-11.80L102.49-11.80L102.49-11.80Q101.88-12.24 100.50-12.24L100.50-12.24ZM100.58-1.68L100.58-1.68Q102.16-1.68 102.86-2.16L102.86-2.16L102.86-2.16Q103.56-2.64 103.56-3.98L103.56-3.98L103.56-3.98Q103.56-5.32 102.85-5.80L102.85-5.80L102.85-5.80Q102.14-6.28 100.54-6.28L100.54-6.28L97.46-6.28L97.46-1.68L100.58-1.68ZM115 0.24L115 0.24Q112.48 0.24 111.09-1.37L111.09-1.37L111.09-1.37Q109.70-2.98 109.70-5.76L109.70-5.76L109.70-13.92L111.46-13.92L111.46-5.82L111.46-5.82Q111.46-3.78 112.37-2.59L112.37-2.59L112.37-2.59Q113.28-1.40 115-1.40L115-1.40L115-1.40Q116.72-1.40 117.63-2.59L117.63-2.59L117.63-2.59Q118.54-3.78 118.54-5.82L118.54-5.82L118.54-13.92L120.30-13.92L120.30-5.76L120.30-5.76Q120.30-2.98 118.91-1.37L118.91-1.37L118.91-1.37Q117.52 0.24 115 0.24L115 0.24ZM130-13.92L130-13.92Q133.10-13.92 134.74-12.08L134.74-12.08L134.74-12.08Q136.38-10.24 136.38-6.96L136.38-6.96L136.38-6.96Q136.38-3.68 134.74-1.84L134.74-1.84L134.74-1.84Q133.10 0 130 0L130 0L125.30 0L125.30-13.92L130-13.92ZM130.14-1.68L130.14-1.68Q132.30-1.68 133.39-3.09L133.39-3.09L133.39-3.09Q134.48-4.50 134.48-6.96L134.48-6.96L134.48-6.96Q134.48-9.42 133.39-10.83L133.39-10.83L133.39-10.83Q132.30-12.24 130.14-12.24L130.14-12.24L127.06-12.24L127.06-1.68L130.14-1.68ZM140.42-6.94L140.42-6.94Q140.42-9.10 141.18-10.73L141.18-10.73L141.18-10.73Q141.94-12.36 143.43-13.26L143.43-13.26L143.43-13.26Q144.92-14.16 147.02-14.16L147.02-14.16L147.02-14.16Q148.22-14.16 149.28-13.87L149.28-13.87L149.28-13.87Q150.34-13.58 151.16-13.08L151.16-13.08L151.14-11.10L151.06-11.10L151.06-11.10Q150.28-11.78 149.21-12.17L149.21-12.17L149.21-12.17Q148.14-12.56 146.96-12.56L146.96-12.56L146.96-12.56Q144.62-12.56 143.47-11.05L143.47-11.05L143.47-11.05Q142.32-9.54 142.32-6.94L142.32-6.94L142.32-6.94Q142.32-4.36 143.45-2.86L143.45-2.86L143.45-2.86Q144.58-1.36 146.86-1.36L146.86-1.36L146.86-1.36Q147.80-1.36 148.58-1.61L148.58-1.61L148.58-1.61Q149.36-1.86 149.94-2.32L149.94-2.32L149.94-5.30L147-5.30L147-6.84L151.70-6.84L151.70-1.40L151.70-1.40Q150.46-0.58 149.35-0.17L149.35-0.17L149.35-0.17Q148.24 0.24 146.84 0.24L146.84 0.24L146.84 0.24Q144.80 0.24 143.35-0.66L143.35-0.66L143.35-0.66Q141.90-1.56 141.16-3.18L141.16-3.18L141.16-3.18Q140.42-4.80 140.42-6.94L140.42-6.94ZM164.80-12.24L158.26-12.24L158.26-7.84L164.36-7.84L164.36-6.24L158.26-6.24L158.26-1.68L164.80-1.68L164.80 0L156.50 0L156.50-13.92L164.80-13.92L164.80-12.24ZM172.32 0L172.32-12.16L168.12-12.16L168.12-13.92L178.28-13.92L178.28-12.16L174.08-12.16L174.08 0L172.32 0Z" fill="#ffffff"></path></g></g><style>text {
  font-size: 64px;
  font-family: Arial Black;
  dominant-baseline: central;
  text-anchor: middle;
}</style></svg>