<svg width="203.36628417968748px" height="47.62501220703125px" xmlns="http://www.w3.org/2000/svg" viewBox="148.31685791015627 51.187493896484376 203.36628417968748 47.62501220703125" style="background: none;" preserveAspectRatio="xMidYMid"><defs><filter id="editing-hover" x="-100%" y="-100%" width="300%" height="300%"><feFlood flood-color="#ffffff" result="flood"></feFlood><feComposite operator="in" in2="SourceAlpha" in="flood" result="shadow"></feComposite><feOffset dx="0" dy="0.1" in="SourceGraphic" result="offset-1"></feOffset><feOffset dx="0" dy="-0.1" in="shadow" result="offset-2"></feOffset><feMerge><feMergeNode in="offset-2"></feMergeNode><feMergeNode in="offset-1"></feMergeNode></feMerge></filter></defs><g filter="url(#editing-hover)"><g transform="translate(182.44468140602112, 80.43125009536743)"><path d="M6.21 0.18L6.21 0.18Q4.69 0.18 3.64-0.49L3.64-0.49L3.64-0.49Q2.58-1.17 2.05-2.38L2.05-2.38L2.05-2.38Q1.51-3.60 1.51-5.22L1.51-5.22L1.51-5.22Q1.51-6.84 2.05-8.05L2.05-8.05L2.05-8.05Q2.58-9.27 3.64-9.95L3.64-9.95L3.64-9.95Q4.69-10.62 6.21-10.62L6.21-10.62L6.21-10.62Q7.04-10.62 7.80-10.42L7.80-10.42L7.80-10.42Q8.56-10.21 9.20-9.82L9.20-9.82L9.20-8.32L9.13-8.32L9.13-8.32Q8.64-8.80 7.89-9.10L7.89-9.10L7.89-9.10Q7.14-9.39 6.25-9.39L6.25-9.39L6.25-9.39Q4.54-9.39 3.74-8.28L3.74-8.28L3.74-8.28Q2.94-7.17 2.94-5.22L2.94-5.22L2.94-5.22Q2.94-3.25 3.74-2.15L3.74-2.15L3.74-2.15Q4.54-1.03 6.24-1.03L6.24-1.03L6.24-1.03Q7.09-1.03 7.85-1.32L7.85-1.32L7.85-1.32Q8.61-1.60 9.13-2.11L9.13-2.11L9.20-2.11L9.20-0.61L9.20-0.61Q8.56-0.22 7.80-0.02L7.80-0.02L7.80-0.02Q7.04 0.18 6.21 0.18L6.21 0.18ZM19.60-10.44L20.92-10.44L20.92 0L19.60 0L19.60-4.83L13.99-4.83L13.99 0L12.67 0L12.67-10.44L13.99-10.44L13.99-6.06L19.60-6.06L19.60-10.44ZM29.10 0.18L29.10 0.18Q27.58 0.18 26.51-0.49L26.51-0.49L26.51-0.49Q25.44-1.17 24.88-2.38L24.88-2.38L24.88-2.38Q24.31-3.60 24.31-5.22L24.31-5.22L24.31-5.22Q24.31-6.84 24.88-8.05L24.88-8.05L24.88-8.05Q25.44-9.27 26.51-9.95L26.51-9.95L26.51-9.95Q27.58-10.62 29.10-10.62L29.10-10.62L29.10-10.62Q30.61-10.62 31.69-9.95L31.69-9.95L31.69-9.95Q32.76-9.27 33.32-8.05L33.32-8.05L33.32-8.05Q33.88-6.84 33.88-5.22L33.88-5.22L33.88-5.22Q33.88-3.60 33.32-2.38L33.32-2.38L33.32-2.38Q32.76-1.17 31.69-0.49L31.69-0.49L31.69-0.49Q30.61 0.18 29.10 0.18L29.10 0.18ZM29.10-1.02L29.10-1.02Q30.78-1.02 31.62-2.15L31.62-2.15L31.62-2.15Q32.46-3.28 32.46-5.22L32.46-5.22L32.46-5.22Q32.46-7.15 31.62-8.29L31.62-8.29L31.62-8.29Q30.78-9.42 29.10-9.42L29.10-9.42L29.10-9.42Q27.42-9.42 26.58-8.29L26.58-8.29L26.58-8.29Q25.74-7.15 25.74-5.22L25.74-5.22L25.74-5.22Q25.74-3.28 26.58-2.15L26.58-2.15L26.58-2.15Q27.42-1.02 29.10-1.02L29.10-1.02ZM37.27 0L37.27-10.44L40.66-10.44L40.66-10.44Q44.56-10.44 44.56-7.02L44.56-7.02L44.56-7.02Q44.56-5.29 43.60-4.39L43.60-4.39L43.60-4.39Q42.63-3.48 40.77-3.48L40.77-3.48L38.59-3.48L38.59 0L37.27 0ZM38.59-4.71L40.73-4.71L40.73-4.71Q42.02-4.71 42.58-5.23L42.58-5.23L42.58-5.23Q43.14-5.76 43.14-6.96L43.14-6.96L43.14-6.96Q43.14-8.16 42.58-8.67L42.58-8.67L42.58-8.67Q42.02-9.18 40.66-9.18L40.66-9.18L38.59-9.18L38.59-4.71ZM51.60 0.18L51.60 0.18Q50.08 0.18 49.01-0.49L49.01-0.49L49.01-0.49Q47.94-1.17 47.38-2.38L47.38-2.38L47.38-2.38Q46.81-3.60 46.81-5.22L46.81-5.22L46.81-5.22Q46.81-6.84 47.38-8.05L47.38-8.05L47.38-8.05Q47.94-9.27 49.01-9.95L49.01-9.95L49.01-9.95Q50.08-10.62 51.60-10.62L51.60-10.62L51.60-10.62Q53.11-10.62 54.19-9.95L54.19-9.95L54.19-9.95Q55.26-9.27 55.82-8.05L55.82-8.05L55.82-8.05Q56.38-6.84 56.38-5.22L56.38-5.22L56.38-5.22Q56.38-3.60 55.82-2.38L55.82-2.38L55.82-2.38Q55.26-1.17 54.19-0.49L54.19-0.49L54.19-0.49Q53.11 0.18 51.60 0.18L51.60 0.18ZM51.60-1.02L51.60-1.02Q53.28-1.02 54.12-2.15L54.12-2.15L54.12-2.15Q54.96-3.28 54.96-5.22L54.96-5.22L54.96-5.22Q54.96-7.15 54.12-8.29L54.12-8.29L54.12-8.29Q53.28-9.42 51.60-9.42L51.60-9.42L51.60-9.42Q49.92-9.42 49.08-8.29L49.08-8.29L49.08-8.29Q48.24-7.15 48.24-5.22L48.24-5.22L48.24-5.22Q48.24-3.28 49.08-2.15L49.08-2.15L49.08-2.15Q49.92-1.02 51.60-1.02L51.60-1.02ZM66.70-10.44L68.03-10.44L68.03 0L66.70 0L61.09-8.05L61.09 0L59.77 0L59.77-10.44L61.09-10.44L66.70-2.38L66.70-10.44ZM77.59-5.43L77.59-5.43Q79.09-4.79 79.09-2.92L79.09-2.92L79.09-2.92Q79.09-1.41 78.14-0.70L78.14-0.70L78.14-0.70Q77.18 0 75.44 0L75.44 0L71.78 0L71.78-10.44L75.54-10.44L75.54-10.44Q77.07-10.44 77.91-9.76L77.91-9.76L77.91-9.76Q78.75-9.09 78.75-7.71L78.75-7.71L78.75-7.71Q78.75-6.13 77.59-5.43L77.59-5.43ZM75.38-9.18L73.09-9.18L73.09-5.96L75.38-5.96L75.38-5.96Q76.41-5.96 76.87-6.33L76.87-6.33L76.87-6.33Q77.33-6.71 77.33-7.65L77.33-7.65L77.33-7.65Q77.33-8.52 76.87-8.85L76.87-8.85L76.87-8.85Q76.41-9.18 75.38-9.18L75.38-9.18ZM75.44-1.26L75.44-1.26Q76.62-1.26 77.15-1.62L77.15-1.62L77.15-1.62Q77.67-1.98 77.67-2.98L77.67-2.98L77.67-2.98Q77.67-3.99 77.14-4.35L77.14-4.35L77.14-4.35Q76.61-4.71 75.41-4.71L75.41-4.71L73.09-4.71L73.09-1.26L75.44-1.26ZM86.25 0.18L86.25 0.18Q84.36 0.18 83.32-1.03L83.32-1.03L83.32-1.03Q82.28-2.23 82.28-4.32L82.28-4.32L82.28-10.44L83.59-10.44L83.59-4.37L83.59-4.37Q83.59-2.83 84.28-1.94L84.28-1.94L84.28-1.94Q84.96-1.05 86.25-1.05L86.25-1.05L86.25-1.05Q87.54-1.05 88.22-1.94L88.22-1.94L88.22-1.94Q88.91-2.83 88.91-4.37L88.91-4.37L88.91-10.44L90.23-10.44L90.23-4.32L90.23-4.32Q90.23-2.23 89.18-1.03L89.18-1.03L89.18-1.03Q88.14 0.18 86.25 0.18L86.25 0.18ZM97.50-10.44L97.50-10.44Q99.83-10.44 101.06-9.06L101.06-9.06L101.06-9.06Q102.29-7.68 102.29-5.22L102.29-5.22L102.29-5.22Q102.29-2.76 101.06-1.38L101.06-1.38L101.06-1.38Q99.83 0 97.50 0L97.50 0L93.98 0L93.98-10.44L97.50-10.44ZM97.61-1.26L97.61-1.26Q99.23-1.26 100.04-2.32L100.04-2.32L100.04-2.32Q100.86-3.38 100.86-5.22L100.86-5.22L100.86-5.22Q100.86-7.06 100.04-8.12L100.04-8.12L100.04-8.12Q99.23-9.18 97.61-9.18L97.61-9.18L95.30-9.18L95.30-1.26L97.61-1.26ZM105.32-5.21L105.32-5.21Q105.32-6.83 105.89-8.05L105.89-8.05L105.89-8.05Q106.46-9.27 107.57-9.95L107.57-9.95L107.57-9.95Q108.69-10.62 110.27-10.62L110.27-10.62L110.27-10.62Q111.17-10.62 111.96-10.40L111.96-10.40L111.96-10.40Q112.76-10.19 113.37-9.81L113.37-9.81L113.36-8.32L113.30-8.32L113.30-8.32Q112.71-8.83 111.91-9.13L111.91-9.13L111.91-9.13Q111.11-9.42 110.22-9.42L110.22-9.42L110.22-9.42Q108.47-9.42 107.60-8.29L107.60-8.29L107.60-8.29Q106.74-7.15 106.74-5.21L106.74-5.21L106.74-5.21Q106.74-3.27 107.59-2.15L107.59-2.15L107.59-2.15Q108.44-1.02 110.15-1.02L110.15-1.02L110.15-1.02Q110.85-1.02 111.44-1.21L111.44-1.21L111.44-1.21Q112.02-1.40 112.46-1.74L112.46-1.74L112.46-3.97L110.25-3.97L110.25-5.13L113.78-5.13L113.78-1.05L113.78-1.05Q112.85-0.43 112.01-0.13L112.01-0.13L112.01-0.13Q111.18 0.18 110.13 0.18L110.13 0.18L110.13 0.18Q108.60 0.18 107.51-0.49L107.51-0.49L107.51-0.49Q106.43-1.17 105.87-2.38L105.87-2.38L105.87-2.38Q105.32-3.60 105.32-5.21L105.32-5.21ZM123.60-9.18L118.70-9.18L118.70-5.88L123.27-5.88L123.27-4.68L118.70-4.68L118.70-1.26L123.60-1.26L123.60 0L117.38 0L117.38-10.44L123.60-10.44L123.60-9.18ZM129.24 0L129.24-9.12L126.09-9.12L126.09-10.44L133.71-10.44L133.71-9.12L130.56-9.12L130.56 0L129.24 0Z" fill="#ffffff"></path></g></g><style>text {
  font-size: 64px;
  font-family: Arial Black;
  dominant-baseline: central;
  text-anchor: middle;
}</style></svg>