<svg width="382.0362060546875px" height="72.82750244140624px" xmlns="http://www.w3.org/2000/svg" viewBox="58.981896972656244 38.58624877929688 382.0362060546875 72.82750244140624" style="background: none;" preserveAspectRatio="xMidYMid"><defs><filter id="editing-hover" x="-100%" y="-100%" width="300%" height="300%"><feFlood flood-color="rgba(100%,100%,100%,0)" result="flood"></feFlood><feComposite operator="in" in2="SourceAlpha" in="flood" result="shadow"></feComposite><feOffset dx="-2" dy="-4" in="SourceGraphic" result="offset-1"></feOffset><feOffset dx="2" dy="4" in="shadow" result="offset-2"></feOffset><feMerge><feMergeNode in="offset-2"></feMergeNode><feMergeNode in="offset-1"></feMergeNode></feMerge></filter></defs><g filter="url(#editing-hover)"><g transform="translate(115.72843790054321, 85.69625091552734)"><path d="M14.44-20.96L14.44-20.96L14.44-20.96Q17.29-20.96 20.10-19.85L20.10-19.85L19.34-17.78L19.34-17.78Q16.49-18.76 14.37-18.76L14.37-18.76L14.37-18.76Q12.61-18.76 11.11-18.07L11.11-18.07L11.11-18.07Q9.61-17.37 8.62-16.21L8.62-16.21L8.62-16.21Q7.63-15.04 7.08-13.54L7.08-13.54L7.08-13.54Q6.52-12.04 6.52-10.40L6.52-10.40L6.52-10.40Q6.52-8.70 7.11-7.17L7.11-7.17L7.11-7.17Q7.71-5.64 8.77-4.49L8.77-4.49L8.77-4.49Q9.84-3.34 11.43-2.67L11.43-2.67L11.43-2.67Q13.02-1.99 14.91-1.99L14.91-1.99L14.91-1.99Q17.17-1.99 19.61-2.87L19.61-2.87L20.38-1.03L20.38-1.03Q17.31 0.29 14.28 0.29L14.28 0.29L14.28 0.29Q12.41 0.29 10.77-0.25L10.77-0.25L10.77-0.25Q9.13-0.79 7.90-1.77L7.90-1.77L7.90-1.77Q6.68-2.74 5.80-4.07L5.80-4.07L5.80-4.07Q4.92-5.41 4.48-7.01L4.48-7.01L4.48-7.01Q4.03-8.61 4.03-10.39L4.03-10.39L4.03-10.39Q4.03-13.39 5.28-15.78L5.28-15.78L5.28-15.78Q6.53-18.16 8.92-19.56L8.92-19.56L8.92-19.56Q11.31-20.96 14.44-20.96ZM39.13-11.84L39.13-20.82L41.62-20.82L41.62 0L39.13 0L39.13-9.64L27.99-9.64L27.99 0L25.50 0L25.50-20.82L27.99-20.82L27.99-11.84L39.13-11.84ZM57.64-21.04L57.64-21.04L57.64-21.04Q59.71-21.04 61.50-20.31L61.50-20.31L61.50-20.31Q63.30-19.58 64.61-18.27L64.61-18.27L64.61-18.27Q65.92-16.95 66.67-14.98L66.67-14.98L66.67-14.98Q67.41-13.01 67.41-10.65L67.41-10.65L67.41-10.65Q67.41-7.46 66.15-4.97L66.15-4.97L66.15-4.97Q64.88-2.49 62.63-1.14L62.63-1.14L62.63-1.14Q60.38 0.22 57.54 0.22L57.54 0.22L57.54 0.22Q55.66 0.22 53.95-0.45L53.95-0.45L53.95-0.45Q52.24-1.11 50.86-2.39L50.86-2.39L50.86-2.39Q49.48-3.66 48.66-5.72L48.66-5.72L48.66-5.72Q47.84-7.78 47.84-10.36L47.84-10.36L47.84-10.36Q47.84-12.77 48.59-14.78L48.59-14.78L48.59-14.78Q49.34-16.79 50.64-18.16L50.64-18.16L50.64-18.16Q51.94-19.53 53.75-20.28L53.75-20.28L53.75-20.28Q55.55-21.04 57.64-21.04ZM57.51-18.85L57.51-18.85L57.51-18.85Q56.18-18.85 54.95-18.35L54.95-18.35L54.95-18.35Q53.72-17.86 52.68-16.90L52.68-16.90L52.68-16.90Q51.65-15.94 51.03-14.32L51.03-14.32L51.03-14.32Q50.41-12.70 50.41-10.66L50.41-10.66L50.41-10.66Q50.41-8.72 50.98-7.07L50.98-7.07L50.98-7.07Q51.55-5.42 52.53-4.31L52.53-4.31L52.53-4.31Q53.51-3.19 54.85-2.58L54.85-2.58L54.85-2.58Q56.19-1.96 57.73-1.96L57.73-1.96L57.73-1.96Q58.77-1.96 59.77-2.27L59.77-2.27L59.77-2.27Q60.78-2.58 61.70-3.24L61.70-3.24L61.70-3.24Q62.62-3.91 63.32-4.88L63.32-4.88L63.32-4.88Q64.01-5.84 64.43-7.27L64.43-7.27L64.43-7.27Q64.85-8.69 64.85-10.39L64.85-10.39L64.85-10.39Q64.85-12.11 64.41-13.55L64.41-13.55L64.41-13.55Q63.97-14.99 63.24-15.95L63.24-15.95L63.24-15.95Q62.52-16.92 61.56-17.59L61.56-17.59L61.56-17.59Q60.60-18.25 59.58-18.55L59.58-18.55L59.58-18.55Q58.56-18.85 57.51-18.85ZM73.64 0L73.64-20.82L80.51-20.82L80.51-20.82Q80.99-20.82 81.31-20.81L81.31-20.81L81.31-20.81Q81.62-20.80 82.22-20.75L82.22-20.75L82.22-20.75Q82.82-20.70 83.25-20.60L83.25-20.60L83.25-20.60Q83.67-20.51 84.25-20.31L84.25-20.31L84.25-20.31Q84.83-20.11 85.24-19.85L85.24-19.85L85.24-19.85Q85.65-19.58 86.10-19.15L86.10-19.15L86.10-19.15Q86.54-18.72 86.81-18.19L86.81-18.19L86.81-18.19Q87.08-17.67 87.26-16.92L87.26-16.92L87.26-16.92Q87.44-16.17 87.44-15.28L87.44-15.28L87.44-15.28Q87.44-13.99 87.14-12.96L87.14-12.96L87.14-12.96Q86.85-11.94 86.39-11.25L86.39-11.25L86.39-11.25Q85.93-10.56 85.20-10.06L85.20-10.06L85.20-10.06Q84.46-9.57 83.75-9.29L83.75-9.29L83.75-9.29Q83.03-9.02 82.05-8.87L82.05-8.87L82.05-8.87Q81.08-8.72 80.31-8.67L80.31-8.67L80.31-8.67Q79.54-8.63 78.53-8.63L78.53-8.63L78.53-8.63Q77.53-8.63 76.13-8.73L76.13-8.73L76.13 0L73.64 0ZM76.13-18.62L76.13-10.93L76.13-10.93Q77.53-10.81 78.79-10.81L78.79-10.81L78.79-10.81Q79.51-10.81 80.00-10.83L80.00-10.83L80.00-10.83Q80.48-10.84 81.18-10.93L81.18-10.93L81.18-10.93Q81.88-11.02 82.35-11.17L82.35-11.17L82.35-11.17Q82.82-11.32 83.35-11.63L83.35-11.63L83.35-11.63Q83.88-11.94 84.19-12.36L84.19-12.36L84.19-12.36Q84.51-12.77 84.71-13.41L84.71-13.41L84.71-13.41Q84.92-14.05 84.92-14.87L84.92-14.87L84.92-14.87Q84.92-15.72 84.70-16.37L84.70-16.37L84.70-16.37Q84.48-17.02 84.06-17.42L84.06-17.42L84.06-17.42Q83.64-17.81 83.18-18.07L83.18-18.07L83.18-18.07Q82.72-18.33 82.07-18.44L82.07-18.44L82.07-18.44Q81.42-18.54 80.93-18.58L80.93-18.58L80.93-18.58Q80.43-18.62 79.76-18.62L79.76-18.62L76.13-18.62ZM101.95-21.04L101.95-21.04L101.95-21.04Q104.02-21.04 105.81-20.31L105.81-20.31L105.81-20.31Q107.61-19.58 108.92-18.27L108.92-18.27L108.92-18.27Q110.23-16.95 110.98-14.98L110.98-14.98L110.98-14.98Q111.72-13.01 111.72-10.65L111.72-10.65L111.72-10.65Q111.72-7.46 110.46-4.97L110.46-4.97L110.46-4.97Q109.19-2.49 106.94-1.14L106.94-1.14L106.94-1.14Q104.69 0.22 101.85 0.22L101.85 0.22L101.85 0.22Q99.98 0.22 98.26-0.45L98.26-0.45L98.26-0.45Q96.55-1.11 95.17-2.39L95.17-2.39L95.17-2.39Q93.79-3.66 92.97-5.72L92.97-5.72L92.97-5.72Q92.15-7.78 92.15-10.36L92.15-10.36L92.15-10.36Q92.15-12.77 92.90-14.78L92.90-14.78L92.90-14.78Q93.65-16.79 94.95-18.16L94.95-18.16L94.95-18.16Q96.25-19.53 98.06-20.28L98.06-20.28L98.06-20.28Q99.86-21.04 101.95-21.04ZM101.82-18.85L101.82-18.85L101.82-18.85Q100.49-18.85 99.26-18.35L99.26-18.35L99.26-18.35Q98.03-17.86 96.99-16.90L96.99-16.90L96.99-16.90Q95.96-15.94 95.34-14.32L95.34-14.32L95.34-14.32Q94.72-12.70 94.72-10.66L94.72-10.66L94.72-10.66Q94.72-8.72 95.29-7.07L95.29-7.07L95.29-7.07Q95.86-5.42 96.84-4.31L96.84-4.31L96.84-4.31Q97.82-3.19 99.16-2.58L99.16-2.58L99.16-2.58Q100.50-1.96 102.04-1.96L102.04-1.96L102.04-1.96Q103.08-1.96 104.08-2.27L104.08-2.27L104.08-2.27Q105.09-2.58 106.01-3.24L106.01-3.24L106.01-3.24Q106.93-3.91 107.63-4.88L107.63-4.88L107.63-4.88Q108.33-5.84 108.74-7.27L108.74-7.27L108.74-7.27Q109.16-8.69 109.16-10.39L109.16-10.39L109.16-10.39Q109.16-12.11 108.72-13.55L108.72-13.55L108.72-13.55Q108.28-14.99 107.56-15.95L107.56-15.95L107.56-15.95Q106.83-16.92 105.87-17.59L105.87-17.59L105.87-17.59Q104.91-18.25 103.89-18.55L103.89-18.55L103.89-18.55Q102.88-18.85 101.82-18.85ZM117.95 0L117.95-20.82L121.10-20.82L132.44-3.40L132.44-20.82L134.93-20.82L134.93 0L131.78 0L120.44-17.45L120.44 0L117.95 0ZM148.75-18.91L144.74-18.91L144.74-11.92L144.74-11.92Q145.02-11.94 145.71-11.95L145.71-11.95L145.71-11.95Q146.40-11.95 146.78-11.96L146.78-11.96L146.78-11.96Q147.16-11.97 147.85-12.02L147.85-12.02L147.85-12.02Q148.54-12.07 148.95-12.14L148.95-12.14L148.95-12.14Q149.37-12.20 149.96-12.34L149.96-12.34L149.96-12.34Q150.56-12.48 150.93-12.66L150.93-12.66L150.93-12.66Q151.30-12.85 151.72-13.13L151.72-13.13L151.72-13.13Q152.14-13.42 152.37-13.77L152.37-13.77L152.37-13.77Q152.61-14.12 152.76-14.61L152.76-14.61L152.76-14.61Q152.92-15.10 152.92-15.69L152.92-15.69L152.92-15.69Q152.92-16.13 152.83-16.52L152.83-16.52L152.83-16.52Q152.74-16.92 152.46-17.37L152.46-17.37L152.46-17.37Q152.18-17.83 151.74-18.15L151.74-18.15L151.74-18.15Q151.30-18.47 150.53-18.69L150.53-18.69L150.53-18.69Q149.77-18.91 148.75-18.91L148.75-18.91ZM144.74-9.99L144.74-9.99L144.74-2.20L148.62-2.20L148.62-2.20Q149.15-2.20 149.51-2.20L149.51-2.20L149.51-2.20Q149.87-2.21 150.54-2.29L150.54-2.29L150.54-2.29Q151.22-2.37 151.69-2.51L151.69-2.51L151.69-2.51Q152.17-2.65 152.75-2.94L152.75-2.94L152.75-2.94Q153.34-3.22 153.70-3.62L153.70-3.62L153.70-3.62Q154.06-4.01 154.31-4.64L154.31-4.64L154.31-4.64Q154.56-5.26 154.56-6.05L154.56-6.05L154.56-6.05Q154.56-8.00 153.05-9.10L153.05-9.10L153.05-9.10Q151.54-10.20 148.99-10.20L148.99-10.20L148.99-10.20Q148.71-10.20 144.74-9.99ZM142.25 0L142.25-20.82L149.59-20.82L149.59-20.82Q150.66-20.82 151.55-20.59L151.55-20.59L151.55-20.59Q152.43-20.36 153.01-20.01L153.01-20.01L153.01-20.01Q153.59-19.66 154.04-19.17L154.04-19.17L154.04-19.17Q154.48-18.69 154.72-18.24L154.72-18.24L154.72-18.24Q154.95-17.78 155.10-17.27L155.10-17.27L155.10-17.27Q155.24-16.76 155.28-16.43L155.28-16.43L155.28-16.43Q155.32-16.10 155.32-15.81L155.32-15.81L155.32-15.81Q155.32-14.53 154.45-13.26L154.45-13.26L154.45-13.26Q153.59-12.00 152.62-11.63L152.62-11.63L152.62-11.63Q154.56-11.28 155.79-9.76L155.79-9.76L155.79-9.76Q157.03-8.25 157.03-6.31L157.03-6.31L157.03-6.31Q157.03-5.86 156.95-5.36L156.95-5.36L156.95-5.36Q156.87-4.86 156.64-4.23L156.64-4.23L156.64-4.23Q156.40-3.60 156.04-3.03L156.04-3.03L156.04-3.03Q155.67-2.46 155.04-1.90L155.04-1.90L155.04-1.90Q154.41-1.33 153.60-0.92L153.60-0.92L153.60-0.92Q152.78-0.51 151.60-0.26L151.60-0.26L151.60-0.26Q150.42 0 149.02 0L149.02 0L142.25 0ZM163.11-7.13L163.11-20.82L165.60-20.82L165.60-7.32L165.60-7.32Q165.60-6.08 165.81-5.19L165.81-5.19L165.81-5.19Q166.03-4.29 166.71-3.52L166.71-3.52L166.71-3.52Q168.18-1.86 171.04-1.86L171.04-1.86L171.04-1.86Q173.10-1.86 174.48-2.76L174.48-2.76L174.48-2.76Q175.87-3.66 176.28-5.30L176.28-5.30L176.28-5.30Q176.47-6.08 176.47-7.32L176.47-7.32L176.47-20.82L178.93-20.82L178.93-20.82Q178.93-16.11 178.94-13.13L178.94-13.13L178.94-13.13Q178.95-10.14 178.95-9.29L178.95-9.29L178.95-9.29Q178.95-8.45 178.95-7.95L178.95-7.95L178.95-7.95Q178.96-7.44 178.96-7.10L178.96-7.10L178.96-7.10Q178.96-6.43 178.93-5.93L178.93-5.93L178.93-5.93Q178.90-5.42 178.73-4.60L178.73-4.60L178.73-4.60Q178.56-3.78 178.27-3.17L178.27-3.17L178.27-3.17Q177.98-2.56 177.39-1.88L177.39-1.88L177.39-1.88Q176.79-1.19 175.98-0.74L175.98-0.74L175.98-0.74Q175.17-0.29 173.90 0L173.90 0L173.90 0Q172.63 0.29 171.04 0.29L171.04 0.29L171.04 0.29Q169.32 0.29 167.96-0.07L167.96-0.07L167.96-0.07Q166.60-0.42 165.82-0.92L165.82-0.92L165.82-0.92Q165.04-1.42 164.48-2.12L164.48-2.12L164.48-2.12Q163.92-2.83 163.70-3.33L163.70-3.33L163.70-3.33Q163.49-3.84 163.36-4.39L163.36-4.39L163.36-4.39Q163.11-5.36 163.11-7.13L163.11-7.13ZM192.82-18.62L188.77-18.62L188.77-2.20L191.81-2.20L191.81-2.20Q192.47-2.20 192.90-2.21L192.90-2.21L192.90-2.21Q193.33-2.23 194.07-2.30L194.07-2.30L194.07-2.30Q194.81-2.37 195.34-2.52L195.34-2.52L195.34-2.52Q195.88-2.67 196.56-2.94L196.56-2.94L196.56-2.94Q197.24-3.22 197.77-3.62L197.77-3.62L197.77-3.62Q198.30-4.01 198.82-4.63L198.82-4.63L198.82-4.63Q199.35-5.24 199.75-6.02L199.75-6.02L199.75-6.02Q200.71-7.88 200.71-10.55L200.71-10.55L200.71-10.55Q200.71-12.39 200.18-13.88L200.18-13.88L200.18-13.88Q199.64-15.37 198.76-16.30L198.76-16.30L198.76-16.30Q197.87-17.23 196.87-17.77L196.87-17.77L196.87-17.77Q195.86-18.31 194.77-18.50L194.77-18.50L194.77-18.50Q194.12-18.62 192.82-18.62L192.82-18.62ZM186.28-20.82L192.73-20.82L192.73-20.82Q194.75-20.82 196.41-20.41L196.41-20.41L196.41-20.41Q198.06-20.01 199.18-19.28L199.18-19.28L199.18-19.28Q200.30-18.54 201.11-17.62L201.11-17.62L201.11-17.62Q201.91-16.70 202.36-15.56L202.36-15.56L202.36-15.56Q202.81-14.43 203.01-13.33L203.01-13.33L203.01-13.33Q203.22-12.23 203.22-11.04L203.22-11.04L203.22-11.04Q203.22-9.68 203.01-8.42L203.01-8.42L203.01-8.42Q202.81-7.16 202.30-5.86L202.30-5.86L202.30-5.86Q201.80-4.56 201.01-3.52L201.01-3.52L201.01-3.52Q200.23-2.49 198.98-1.66L198.98-1.66L198.98-1.66Q197.74-0.83 196.16-0.44L196.16-0.44L196.16-0.44Q195.34-0.23 194.33-0.13L194.33-0.13L194.33-0.13Q193.32-0.03 192.66-0.01L192.66-0.01L192.66-0.01Q192.00 0 190.80 0L190.80 0L186.28 0L186.28-20.82ZM219.02-20.98L219.02-20.98L219.02-20.98Q222.54-20.98 225.72-19.20L225.72-19.20L224.74-17.34L224.74-17.34Q223.62-17.93 222.14-18.35L222.14-18.35L222.14-18.35Q220.66-18.78 219.16-18.78L219.16-18.78L219.16-18.78Q217.62-18.78 216.19-18.21L216.19-18.21L216.19-18.21Q214.76-17.64 213.65-16.60L213.65-16.60L213.65-16.60Q212.53-15.57 211.87-14.00L211.87-14.00L211.87-14.00Q211.20-12.42 211.20-10.55L211.20-10.55L211.20-10.55Q211.20-8.07 212.30-6.09L212.30-6.09L212.30-6.09Q213.40-4.12 215.33-3.02L215.33-3.02L215.33-3.02Q217.27-1.92 219.65-1.92L219.65-1.92L219.65-1.92Q222.48-1.92 224.25-3.62L224.25-3.62L224.25-8.94L218.33-8.94L218.33-10.99L226.67-10.99L226.67-2.81L226.67-2.81Q226.27-2.36 225.75-1.93L225.75-1.93L225.75-1.93Q225.23-1.51 224.30-0.95L224.30-0.95L224.30-0.95Q223.37-0.40 222.01-0.05L222.01-0.05L222.01-0.05Q220.65 0.29 219.07 0.29L219.07 0.29L219.07 0.29Q216.99 0.29 215.24-0.33L215.24-0.33L215.24-0.33Q213.49-0.95 212.30-1.99L212.30-1.99L212.30-1.99Q211.11-3.03 210.29-4.42L210.29-4.42L210.29-4.42Q209.47-5.80 209.09-7.31L209.09-7.31L209.09-7.31Q208.71-8.82 208.71-10.39L208.71-10.39L208.71-10.39Q208.71-12.03 209.13-13.57L209.13-13.57L209.13-13.57Q209.55-15.12 210.41-16.46L210.41-16.46L210.41-16.46Q211.27-17.81 212.48-18.82L212.48-18.82L212.48-18.82Q213.69-19.82 215.38-20.40L215.38-20.40L215.38-20.40Q217.06-20.98 219.02-20.98ZM245.32 0L233.12 0L233.12-20.82L245.32-20.82L245.32-18.62L235.61-18.62L235.61-11.82L244.51-11.82L244.51-9.62L235.61-9.62L235.61-2.20L245.32-2.20L245.32 0ZM248.91-18.62L248.91-20.82L265.31-20.82L265.31-18.62L258.35-18.62L258.35 0L255.86 0L255.86-18.62L248.91-18.62Z" fill="#ffffff"></path></g></g><style>text {
  font-size: 64px;
  font-family: Arial Black;
  dominant-baseline: central;
  text-anchor: middle;
}</style></svg>